<svg xmlns="http://www.w3.org/2000/svg" viewBox="0 0 64 64">
  <rect width="64" height="64" rx="12" fill="#fdf7e6"/>
  <g stroke="#b9cbe4" stroke-width="1.2">
    <path d="M0 16h64M0 28h64M0 40h64M0 52h64"/>
  </g>
  <path d="M10 0v64" stroke="#c0392b" stroke-width="1.2" opacity=".55"/>
  <g fill="#3a4a6b">
    <circle cx="20" cy="20" r="2.6"/><circle cx="32" cy="20" r="2.6"/><circle cx="44" cy="20" r="2.6"/>
    <circle cx="20" cy="32" r="2.6"/><circle cx="32" cy="32" r="2.6"/><circle cx="44" cy="32" r="2.6"/>
    <circle cx="20" cy="44" r="2.6"/><circle cx="32" cy="44" r="2.6"/><circle cx="44" cy="44" r="2.6"/>
  </g>
  <g stroke="#1d3c8f" stroke-width="3.4" stroke-linecap="round" fill="none">
    <path d="M20 20h12M20 32h12M20 20v12M32 20v12"/>
  </g>
  <g stroke="#c0392b" stroke-width="3.4" stroke-linecap="round" fill="none">
    <path d="M32 32h12M32 44h12M44 32v12"/>
  </g>
</svg>
